<?xml version="1.0" ?><svg id="Layer_1_1_" style="enable-background:new 0 0 64 64;" version="1.1" viewBox="0 0 64 64" xml:space="preserve" xmlns="http://www.w3.org/2000/svg" xmlns:xlink="http://www.w3.org/1999/xlink"><path d="M53,13h-0.701l-0.239,0.658c-1.209,3.326-2.998,6.368-5.241,9.023L37,13.564V1H27v12.564l-9.819,9.117  c-2.244-2.654-4.032-5.696-5.242-9.023L11.701,13H11C5.486,13,1,17.486,1,23v17c0,12.683,10.318,23,23,23c2.757,0,5-2.243,5-5V34.39  c0-1.842-1.007-3.529-2.63-4.403l-0.59-0.317c-0.545-0.293-1.063-0.625-1.585-0.95L30.391,23h3.218l6.196,5.719  c-0.522,0.325-1.04,0.656-1.584,0.949l-0.591,0.318C36.007,30.86,35,32.547,35,34.39V58c0,2.757,2.243,5,5,5  c12.682,0,23-10.317,23-23V23C63,17.486,58.514,13,53,13z M35,13h-6v-2h6V13z M35,9h-6V7h6V9z M35,3v2h-6V3H35z M28.393,15h7.215  l2.474,2.297L33.638,21h-3.276l-4.443-3.703L28.393,15z M25.422,31.748c0.542,0.292,0.952,0.743,1.225,1.269L19.551,41h-9.036  l-4.701-6.581l-1.628,1.162L9.485,43h0.034l3.055,3.819L9.667,49H8v2h2.333L13,49v4h2v-6.351L12.081,43H19v8.333l3.2,4.267  l1.6-1.199L21,50.667V42.38l6-6.75V58c0,1.654-1.346,3-3,3C12.42,61,3,51.579,3,40V23c0-4.182,3.226-7.625,7.319-7.971  c0.669,1.716,1.486,3.357,2.428,4.913L8,25.638V33h2v-5.234l3,1.8V37h2v-8.566l-4.484-2.69l3.387-4.065  c2.816,4.024,6.53,7.383,10.929,9.752L25.422,31.748z M18.535,24.154l5.906-5.484l4.043,3.369l-5.995,5.534  C21.067,26.546,19.746,25.404,18.535,24.154z M35.516,22.038l4.043-3.369l5.906,5.484c-1.211,1.251-2.532,2.393-3.954,3.419  L35.516,22.038z M61,40c0,11.579-9.42,21-21,21c-1.654,0-3-1.346-3-3V35.63l6,6.75v8.287L40.2,54.4l1.6,1.199l3.2-4.267V43h6.919  L49,46.649V53h2v-4l2.667,2H56v-2h-1.667l-2.908-2.181L54.481,43h0.034l5.299-7.419l-1.628-1.162L53.485,41h-9.036l-7.096-7.984  c0.273-0.526,0.683-0.977,1.224-1.268l0.591-0.318c4.399-2.369,8.113-5.727,10.929-9.752l3.387,4.065L49,28.434V37h2v-7.434l3-1.8  V33h2v-7.362l-4.747-5.697c0.943-1.556,1.759-3.197,2.428-4.913C57.774,15.375,61,18.818,61,23V40z"/></svg>